<svg version="1.0" xmlns="http://www.w3.org/2000/svg"
 width="200.000000pt" height="200.000000pt" viewBox="0 0 200.000000 200.000000"
 preserveAspectRatio="xMidYMid meet">

<g transform="translate(0.000000,200.000000) scale(0.100000,-0.100000)"
fill="white" stroke="none">
<path d="M944 1969 c-340 -45 -522 -414 -349 -708 38 -64 81 -111 142 -153 24
-16 43 -36 43 -44 0 -24 -30 -28 -62 -10 -46 27 -157 56 -218 56 -30 0 -85 -9
-122 -19 -316 -91 -449 -448 -267 -720 97 -145 290 -232 454 -204 85 15 185
62 252 119 80 68 83 63 83 -116 l0 -150 100 0 100 0 0 150 c0 179 3 184 83
116 110 -93 259 -140 382 -119 237 41 407 237 406 470 0 167 -91 323 -234 407
-64 37 -168 66 -237 66 -61 0 -172 -29 -218 -56 -32 -18 -62 -14 -62 10 0 8
19 28 43 44 246 170 279 519 69 726 -104 102 -251 154 -388 135z"/>
</g>
</svg>
