<svg version="1.0" xmlns="http://www.w3.org/2000/svg"
 width="200.000000pt" height="200.000000pt" viewBox="0 0 200.000000 200.000000"
 preserveAspectRatio="xMidYMid meet">

<g transform="translate(0.000000,200.000000) scale(0.100000,-0.100000)"
fill="white" stroke="none">
<path d="M815 1788 c-506 -482 -671 -646 -707 -702 -158 -245 -75 -575 182
-726 164 -97 357 -109 529 -33 30 13 61 21 68 19 10 -4 13 -43 13 -166 l0
-160 100 0 100 0 2 163 c3 187 -5 177 113 132 92 -36 239 -45 334 -21 252 64
423 273 422 515 0 173 -51 270 -237 452 -188 184 -728 699 -734 699 -3 0 -86
-77 -185 -172z"/>
</g>
</svg>
