<svg version="1.0" xmlns="http://www.w3.org/2000/svg"
 width="200.000000pt" height="200.000000pt" viewBox="0 0 200.000000 200.000000"
 preserveAspectRatio="xMidYMid meet">

<g transform="translate(0.000000,200.000000) scale(0.100000,-0.100000)"
fill="white" stroke="none">
<path d="M466 1964 c-398 -96 -576 -613 -334 -972 32 -48 857 -961 868 -961
14 0 831 909 872 970 63 92 99 205 105 329 18 331 -219 624 -524 647 -137 11
-284 -39 -390 -132 -28 -25 -56 -45 -62 -45 -6 0 -37 21 -69 47 -140 114 -306
156 -466 117z"/>
</g>
</svg>
